{
  "accessors": [
    {
      "bufferView": 2,
      "componentType": 5126,
      "count": 31452,
      "max": [
        6.0980000495910645,
        7.460460186004639,
        -0.1121629998087883
      ],
      "min": [
        -6.023519992828369,
        -6.143620014190674,
        -13.80459976196289
      ],
      "type": "VEC3"
    },
    {
      "bufferView": 2,
      "byteOffset": 377424,
      "componentType": 5126,
      "count": 31452,
      "max": [
        0.999990701675415,
        0.9999961256980896,
        1.0
      ],
      "min": [
        -0.9999988675117493,
        -0.9999943375587463,
        -0.9999997615814209
      ],
      "type": "VEC3"
    },
    {
      "bufferView": 3,
      "componentType": 5126,
      "count": 31452,
      "max": [
        0.9999780058860779,
        0.9999985098838806,
        0.9999950528144836,
        1.0
      ],
      "min": [
        -0.9999605417251587,
        -0.9999387264251709,
        -0.9999984502792358,
        -1.0
      ],
      "type": "VEC4"
    },
    {
      "bufferView": 1,
      "componentType": 5126,
      "count": 31452,
      "max": [
        0.9999079704284668,
        0.999977171421051
      ],
      "min": [
        2.892459997383412e-05,
        0.0003460049629211426
      ],
      "type": "VEC2"
    },
    {
      "bufferView": 0,
      "componentType": 5125,
      "count": 102708,
      "type": "SCALAR"
    }
  ],
  "asset": {
    "extras": {
      "author": "eggnot (https://sketchfab.com/eggnot)",
      "license": "CC-BY-4.0 (http://creativecommons.org/licenses/by/4.0/)",
      "source": "https://sketchfab.com/3d-models/temple-of-friendship-effe849f9af346149169fb02db6cd049",
      "title": "Temple of Friendship"
    },
    "generator": "Sketchfab-13.65.0",
    "version": "2.0"
  },
  "bufferViews": [
    {
      "buffer": 0,
      "byteLength": 410832,
      "name": "floatBufferViews",
      "target": 34963
    },
    {
      "buffer": 0,
      "byteLength": 251616,
      "byteOffset": 410832,
      "byteStride": 8,
      "name": "floatBufferViews",
      "target": 34962
    },
    {
      "buffer": 0,
      "byteLength": 754848,
      "byteOffset": 662448,
      "byteStride": 12,
      "name": "floatBufferViews",
      "target": 34962
    },
    {
      "buffer": 0,
      "byteLength": 503232,
      "byteOffset": 1417296,
      "byteStride": 16,
      "name": "floatBufferViews",
      "target": 34962
    }
  ],
  "buffers": [
    {
      "byteLength": 1920528,
      "uri": "scene.bin"
    }
  ],
  "images": [
    {
      "uri": "textures/default.001_baseColor.jpeg"
    },
    {
      "uri": "textures/default.001_metallicRoughness.png"
    },
    {
      "uri": "textures/default.001_normal.png"
    }
  ],
  "materials": [
    {
      "name": "default.001",
      "normalTexture": {
        "index": 2
      },
      "occlusionTexture": {
        "index": 1
      },
      "pbrMetallicRoughness": {
        "baseColorTexture": {
          "index": 0
        },
        "metallicFactor": 0.0,
        "metallicRoughnessTexture": {
          "index": 1
        },
        "roughnessFactor": 0.886364
      }
    }
  ],
  "meshes": [
    {
      "name": "Object_0",
      "primitives": [
        {
          "attributes": {
            "NORMAL": 1,
            "POSITION": 0,
            "TANGENT": 2,
            "TEXCOORD_0": 3
          },
          "indices": 4,
          "material": 0,
          "mode": 4
        }
      ]
    }
  ],
  "nodes": [
    {
      "children": [
        1
      ],
      "matrix": [
        1.0,
        0.0,
        0.0,
        0.0,
        0.0,
        2.220446049250313e-16,
        -1.0,
        0.0,
        0.0,
        1.0,
        2.220446049250313e-16,
        0.0,
        0.0,
        0.0,
        0.0,
        1.0
      ],
      "name": "Sketchfab_model"
    },
    {
      "children": [
        2
      ],
      "name": "root"
    },
    {
      "children": [
        3
      ],
      "matrix": [
        1.0,
        0.0,
        0.0,
        0.0,
        0.0,
        2.220446049250313e-16,
        1.0,
        0.0,
        0.0,
        -1.0,
        2.220446049250313e-16,
        0.0,
        0.0,
        0.0,
        0.0,
        1.0
      ],
      "name": "GLTF_SceneRootNode"
    },
    {
      "children": [
        4
      ],
      "matrix": [
        1.0,
        0.0,
        0.0,
        0.0,
        0.0,
        -1.685873969314855e-07,
        0.9999999999999858,
        0.0,
        0.0,
        -0.9999999999999858,
        -1.685873969314855e-07,
        0.0,
        0.0,
        0.0,
        0.0,
        1.0
      ],
      "name": "temple_all_uv_0"
    },
    {
      "mesh": 0,
      "name": "Object_4"
    }
  ],
  "samplers": [
    {
      "magFilter": 9729,
      "minFilter": 9987,
      "wrapS": 10497,
      "wrapT": 10497
    }
  ],
  "scene": 0,
  "scenes": [
    {
      "name": "Sketchfab_Scene",
      "nodes": [
        0
      ]
    }
  ],
  "textures": [
    {
      "sampler": 0,
      "source": 0
    },
    {
      "sampler": 0,
      "source": 1
    },
    {
      "sampler": 0,
      "source": 2
    }
  ]
}
